<?xml version="1.0" encoding="utf-8"?>
<!-- Generator: Adobe Illustrator 16.0.0, SVG Export Plug-In . SVG Version: 6.00 Build 0)  -->
<!DOCTYPE svg PUBLIC "-//W3C//DTD SVG 1.1//EN" "http://www.w3.org/Graphics/SVG/1.1/DTD/svg11.dtd">
<svg version="1.1" id="图层_1" xmlns="http://www.w3.org/2000/svg" xmlns:xlink="http://www.w3.org/1999/xlink" x="0px" y="0px"
	 width="600px" height="171.5px" viewBox="0 0 600 171.5" enable-background="new 0 0 600 171.5" xml:space="preserve">
<g>
	<path fill="#111111" d="M51.185,115.646L39.948,79.682L19.55,18.054c2.627,0.049,4.945,0.073,6.951,0.073
		c2.147,0,4.471-0.024,6.951-0.073l12.657,42.615l9.795,31.604l3.718,11.369c7.281-15.063,14.202-30.415,20.768-46.045
		c-4.194-13.536-8.578-26.714-13.153-39.54c2.624,0.05,4.961,0.073,7.015,0.073c2.145,0,4.458-0.023,6.939-0.073
		c1.285,4.91,2.368,8.892,3.251,11.942c0.877,3.051,2.127,7.009,3.746,11.869c2.771-5.911,6.035-13.845,9.807-23.811
		c2.618,0.05,4.978,0.073,7.068,0.073c2.24,0,4.596-0.023,7.072-0.073c-6.385,12.967-12.56,26.19-18.518,39.683
		c4.397,15.253,9.245,30.553,14.55,45.901l19.006-42.47l13.794-31.888l4.645-11.227c2.668,0.05,4.997,0.073,7.003,0.073
		c2.096,0,4.401-0.023,6.928-0.073l-22.782,48.692l-16.277,35.748l-5.783,13.156c-2.628-0.096-5.114-0.146-7.452-0.146
		c-2.53,0-5.015,0.051-7.451,0.146c-4.202-14.348-8.79-28.436-13.757-42.26c-6.995,14.014-13.588,28.099-19.771,42.26
		c-2.574-0.096-5.1-0.146-7.577-0.146C56.118,115.502,53.617,115.55,51.185,115.646z"/>
	<path fill="#111111" d="M200.801,41.576c5.003,0,9.77,0.715,14.302,2.143c4.53,1.428,8.446,3.694,11.761,6.792
		c3.317,3.101,5.829,7.009,7.541,11.726c1.714,4.721,2.576,9.701,2.576,14.943c0,5.676-0.92,11.105-2.755,16.3
		c-1.833,5.205-4.409,9.604-7.72,13.229c-3.311,3.627-7.366,6.284-12.152,7.978c-4.788,1.69-9.924,2.537-15.407,2.537
		c-5.101,0-9.917-0.768-14.445-2.291c-4.525-1.524-8.446-3.908-11.761-7.149c-3.315-3.24-5.829-7.204-7.541-11.903
		c-1.714-4.697-2.576-9.615-2.576-14.765c0-7.771,1.575-14.77,4.719-20.984c3.145-6.22,7.77-10.869,13.871-13.943
		C187.313,43.109,193.842,41.576,200.801,41.576z M200.475,50.654c-4.855,0-9.318,1.215-13.39,3.645
		c-4.067,2.433-7.078,6.087-9.03,10.973c-1.952,4.888-2.928,10.217-2.928,15.983c0,5.054,0.809,9.589,2.427,13.62
		c1.621,4.032,4.284,7.281,7.998,9.76c3.714,2.475,8.188,3.719,13.422,3.719c3.571,0,6.951-0.605,10.141-1.828
		c3.184-1.215,5.97-3.226,8.355-6.037c2.379-2.813,4.139-6.256,5.283-10.329c1.138-4.075,1.712-8.354,1.712-12.836
		c0-4.192-0.574-8.127-1.712-11.793c-1.145-3.67-2.896-6.613-5.247-8.832c-2.36-2.216-5.023-3.777-8-4.681
		C206.526,51.112,203.521,50.654,200.475,50.654z"/>
	<path fill="#111111" d="M250.777,115.646c1.712-27.504,2.57-49.453,2.57-65.847l-0.073-6.577c2.433,0.049,4.433,0.073,6.008,0.073
		c1.813,0,3.839-0.024,6.081-0.073l-0.57,11.868c1.762-2.957,3.322-5.182,4.681-6.688c1.359-1.503,2.893-2.74,4.61-3.716
		c1.716-0.977,3.656-1.741,5.827-2.291c2.172-0.549,4.423-0.82,6.756-0.82c2.002,0,3.982,0.24,5.935,0.715
		c0.05,3.144,0.217,6.675,0.5,10.583c-2.957-0.808-5.601-1.215-7.932-1.215c-2.814,0-5.339,0.463-7.577,1.394
		c-2.24,0.932-4.254,2.336-6.039,4.219c-1.786,1.883-3.255,4.139-4.397,6.757c-0.947,2.097-1.676,4.815-2.177,8.148
		c-0.5,3.333-0.894,9.41-1.18,18.229c-0.19,6.436-0.284,13.256-0.284,20.449v4.791c-2.579-0.095-4.653-0.146-6.222-0.146
		C255.857,115.502,253.686,115.55,250.777,115.646z"/>
	<path fill="#111111" d="M302.325,115.646l1.216-19.377l1.493-37.104l0.786-31.099c0.048-4.526,0.07-7.867,0.07-10.01l6.656,0.073
		c1.286,0,3.36-0.024,6.223-0.073c-0.615,7.676-1.367,22.583-2.248,44.724c-0.879,22.137-1.394,39.761-1.533,52.869
		c-2.955-0.094-5.028-0.146-6.221-0.146C307.426,115.502,305.279,115.55,302.325,115.646z M317.055,75.213l14.594-15.57
		c5.102-5.426,9.914-10.905,14.441-16.429c3.289,0.05,5.672,0.074,7.148,0.074c1.859,0,4.406-0.024,7.646-0.074l-30.931,32.067
		c5.773,7.543,16.943,20.993,33.5,40.364c-2.951-0.098-5.33-0.146-7.139-0.146s-4.258,0.048-7.354,0.146l-10.52-13.957
		c-1.002-1.287-3.219-4.004-6.656-8.16L320.7,80.004L317.055,75.213z"/>
	<path fill="#111111" d="M373.966,115.646c0.813-9.725,1.382-17.61,1.691-23.662c0.313-6.055,0.747-17.693,1.295-34.925
		c0.549-17.23,0.825-27.993,0.825-32.285l-0.07-6.719c6.432,0.093,11.393,0.143,14.863,0.143c2.813,0,6.59-0.05,11.328-0.143
		c4.742-0.093,8.373-0.141,10.897-0.141c5.239,0,9.229,0.26,11.973,0.785c2.735,0.524,5.182,1.358,7.323,2.5
		c2.146,1.144,3.956,2.587,5.436,4.323c1.471,1.742,2.666,3.896,3.57,6.473c0.908,2.574,1.357,5.41,1.357,8.508
		c0,2.434-0.298,4.778-0.895,7.041c-0.598,2.262-1.516,4.385-2.758,6.361c-1.238,1.978-2.666,3.682-4.291,5.114
		c-1.617,1.432-3.168,2.536-4.646,3.322c-1.48,0.786-3.432,1.629-5.862,2.538c2.433,0.616,4.373,1.216,5.831,1.783
		c1.454,0.571,2.907,1.335,4.361,2.292c1.449,0.957,2.809,2.133,4.074,3.539c1.265,1.404,2.289,2.906,3.072,4.505
		c0.783,1.593,1.396,3.394,1.819,5.396c0.429,2.002,0.644,4.1,0.644,6.292c0,3.051-0.451,5.959-1.355,8.728
		c-0.905,2.765-2.217,5.231-3.934,7.399c-1.717,2.17-3.74,3.979-6.076,5.435c-2.336,1.45-4.647,2.55-6.938,3.288
		c-2.286,0.738-5.303,1.271-9.044,1.613c-3.746,0.334-8.733,0.5-14.979,0.5l-18.231-0.076L373.966,115.646z M387.689,106.637h18.562
		c5.235,0,9.11-0.285,11.638-0.857c2.521-0.57,4.997-1.586,7.42-3.032c2.426-1.454,4.33-3.627,5.715-6.513
		c1.377-2.885,2.066-5.944,2.066-9.188c0-2.669-0.488-5.076-1.466-7.221c-0.979-2.146-2.401-4.006-4.285-5.577
		c-1.883-1.573-4.084-2.718-6.606-3.433s-6.211-1.071-11.07-1.071h-20.723L387.689,106.637z M389.365,60.807h12.938
		c5.807,0,9.76-0.131,11.86-0.396c2.099-0.263,4.364-0.88,6.823-1.856c2.449-0.976,4.478-2.407,6.068-4.292
		c1.598-1.883,2.766-3.933,3.498-6.148c0.735-2.217,1.108-4.445,1.108-6.688c0-2.383-0.397-4.482-1.187-6.292
		c-0.779-1.811-1.961-3.36-3.533-4.649s-3.426-2.216-5.541-2.79c-2.116-0.574-5.353-0.858-9.688-0.858H390.62L389.365,60.807z"/>
	<path fill="#111111" d="M465.125,54.73c0.43-2.1,0.882-5.193,1.357-9.295c5.721-1.476,10.688-2.488,14.906-3.038
		c4.219-0.549,8.328-0.82,12.332-0.82c4.291,0,8.309,0.393,12.05,1.18c3.739,0.784,6.853,2.062,9.329,3.823
		c2.479,1.761,4.123,3.791,4.936,6.077c0.811,2.283,1.215,4.742,1.215,7.364c0,3.288-0.25,8.806-0.746,16.551
		c-0.497,7.743-0.874,14.909-1.137,21.485c-0.262,6.576-0.389,12.438-0.389,17.59c-2.582-0.099-4.683-0.146-6.303-0.146
		c-1.531,0-3.695,0.048-6.519,0.146l1.518-19.521l1.094-23.1c-1.678,1.283-2.925,2.193-3.759,2.719
		c-0.834,0.526-1.777,1.014-2.828,1.466c-1.049,0.453-2.209,0.882-3.472,1.283c-1.264,0.399-3.718,1.106-7.368,2.108
		c-3.648,1-6.238,1.769-7.766,2.291c-3.289,1.053-5.891,2.103-7.797,3.146c-1.911,1.049-3.508,2.188-4.795,3.432
		c-1.291,1.244-2.2,2.476-2.728,3.72c-0.612,1.523-0.93,3.127-0.93,4.791c0,2.578,0.763,4.816,2.288,6.722
		c1.523,1.901,3.447,3.229,5.76,3.968c2.311,0.739,5.084,1.107,8.325,1.107c2.002,0,4.104-0.139,6.296-0.418
		c2.191-0.284,5.124-1,8.79-2.159c-0.663,1.844-1.431,4.68-2.288,8.513c-3.479,0.667-6.313,1.084-8.508,1.251
		s-4.268,0.254-6.221,0.254c-6.525,0-11.633-0.767-15.303-2.292c-3.67-1.523-6.41-3.849-8.223-6.971
		c-1.807-3.122-2.717-6.521-2.717-10.188c0-2.143,0.326-4.127,0.965-5.936c0.645-1.811,1.514-3.46,2.609-4.936
		c1.101-1.479,2.66-2.959,4.684-4.438c2.025-1.475,4.15-2.688,6.363-3.643c2.213-0.948,4.807-1.896,7.758-2.823
		c2.955-0.927,7.702-2.179,14.229-3.75c2.104-0.478,3.887-0.97,5.361-1.472c1.482-0.496,2.797-0.983,3.939-1.461
		c1.142-0.478,2.143-1.037,3-1.681c0.855-0.64,1.645-1.435,2.356-2.358c0.714-0.926,1.243-1.871,1.577-2.823
		c0.33-0.949,0.496-1.906,0.496-2.858c0-2.333-0.77-4.335-2.292-6.006c-1.524-1.672-3.511-2.836-5.975-3.503
		c-2.454-0.667-5.349-1.001-8.688-1.001c-3.1,0-6.279,0.252-9.545,0.753c-3.273,0.5-6.082,1.098-8.441,1.785
		C471.579,52.311,468.652,53.347,465.125,54.73z"/>
	<path fill="#111111" d="M538.124,115.646c1.712-27.504,2.569-49.453,2.569-65.847l-0.075-6.577c2.435,0.049,4.433,0.073,6.01,0.073
		c1.815,0,3.841-0.024,6.081-0.073l-0.57,11.868c1.766-2.957,3.323-5.182,4.684-6.688c1.357-1.503,2.893-2.74,4.609-3.716
		c1.719-0.977,3.654-1.741,5.823-2.291c2.177-0.549,4.425-0.82,6.761-0.82c2.002,0,3.979,0.24,5.938,0.715
		c0.047,3.144,0.214,6.675,0.5,10.583c-2.959-0.808-5.604-1.215-7.936-1.215c-2.813,0-5.342,0.463-7.577,1.394
		c-2.238,0.932-4.255,2.336-6.041,4.219c-1.782,1.883-3.255,4.139-4.395,6.757c-0.948,2.097-1.677,4.815-2.177,8.148
		c-0.501,3.333-0.896,9.41-1.186,18.229c-0.189,6.436-0.281,13.256-0.281,20.449v4.791c-2.577-0.095-4.65-0.146-6.227-0.146
		C543.204,115.502,541.031,115.55,538.124,115.646z"/>
</g>
<rect x="52.5" y="135.5" fill="none" width="500" height="30"/>
<text transform="matrix(1 0 0 1 154.6162 153.5869)" fill="#111111" font-family="'MicrosoftYaHeiLight'" font-size="24" letter-spacing="18">让协作无时无刻</text>
</svg>
