<?xml version="1.0" encoding="utf-8"?>
<!-- Generator: Adobe Illustrator 16.0.0, SVG Export Plug-In . SVG Version: 6.00 Build 0)  -->
<!DOCTYPE svg PUBLIC "-//W3C//DTD SVG 1.1//EN" "http://www.w3.org/Graphics/SVG/1.1/DTD/svg11.dtd">
<svg version="1.1" id="图层_1" xmlns="http://www.w3.org/2000/svg" xmlns:xlink="http://www.w3.org/1999/xlink" x="0px" y="0px"
	 width="200px" height="62px" viewBox="0 0 200 62" enable-background="new 0 0 200 62" xml:space="preserve">
<g>
	<path fill="#111111" d="M39.775,45.186l-2.763-8.842l-5.015-15.152c0.646,0.012,1.216,0.018,1.709,0.018
		c0.528,0,1.099-0.006,1.709-0.018l3.112,10.477l2.408,7.77l0.914,2.795c1.79-3.703,3.492-7.477,5.106-11.32
		c-1.031-3.328-2.109-6.568-3.234-9.721c0.645,0.012,1.22,0.018,1.725,0.018c0.527,0,1.096-0.006,1.706-0.018
		c0.316,1.207,0.582,2.186,0.799,2.936c0.216,0.75,0.523,1.723,0.921,2.918c0.681-1.453,1.484-3.404,2.411-5.854
		c0.644,0.012,1.224,0.018,1.738,0.018c0.551,0,1.13-0.006,1.739-0.018c-1.57,3.188-3.088,6.439-4.553,9.756
		c1.081,3.75,2.273,7.512,3.577,11.285l4.673-10.441l3.391-7.84l1.142-2.76c0.656,0.012,1.229,0.018,1.722,0.018
		c0.515,0,1.082-0.006,1.703-0.018l-5.601,11.971l-4.002,8.789l-1.422,3.234c-0.646-0.023-1.257-0.035-1.832-0.035
		c-0.622,0-1.233,0.012-1.832,0.035c-1.033-3.527-2.161-6.99-3.382-10.389c-1.72,3.445-3.341,6.908-4.861,10.389
		c-0.633-0.023-1.254-0.035-1.863-0.035C40.988,45.15,40.373,45.162,39.775,45.186z"/>
	<path fill="#111111" d="M76.559,26.975c1.23,0,2.402,0.176,3.516,0.527s2.077,0.908,2.892,1.67s1.433,1.723,1.854,2.883
		s0.633,2.385,0.633,3.674c0,1.395-0.226,2.73-0.677,4.008s-1.084,2.361-1.898,3.252s-1.811,1.544-2.988,1.96
		s-2.44,0.624-3.788,0.624c-1.254,0-2.438-0.188-3.551-0.563s-2.077-0.961-2.892-1.758s-1.433-1.772-1.854-2.927
		s-0.633-2.364-0.633-3.63c0-1.91,0.387-3.63,1.16-5.159s1.91-2.672,3.41-3.428S74.848,26.975,76.559,26.975z M76.479,29.207
		c-1.194,0-2.291,0.299-3.292,0.896c-1,0.598-1.74,1.497-2.22,2.698s-0.72,2.511-0.72,3.929c0,1.242,0.199,2.358,0.597,3.349
		s1.053,1.79,1.966,2.399s2.013,0.914,3.3,0.914c0.878,0,1.709-0.149,2.493-0.448c0.783-0.299,1.468-0.794,2.054-1.485
		c0.585-0.691,1.018-1.538,1.299-2.54c0.28-1.002,0.421-2.054,0.421-3.155c0-1.031-0.141-1.998-0.421-2.9
		c-0.281-0.902-0.712-1.626-1.29-2.171c-0.58-0.545-1.235-0.929-1.967-1.151S77.228,29.207,76.479,29.207z"/>
	<path fill="#111111" d="M88.846,45.186c0.421-6.762,0.632-12.158,0.632-16.189l-0.018-1.617c0.598,0.012,1.09,0.018,1.477,0.018
		c0.446,0,0.944-0.006,1.495-0.018l-0.14,2.918c0.433-0.727,0.817-1.274,1.151-1.644s0.711-0.674,1.133-0.914
		s0.899-0.428,1.433-0.563s1.087-0.202,1.661-0.202c0.492,0,0.979,0.059,1.459,0.176c0.012,0.773,0.053,1.641,0.123,2.602
		c-0.727-0.199-1.377-0.299-1.95-0.299c-0.692,0-1.313,0.114-1.863,0.343c-0.551,0.229-1.046,0.574-1.485,1.037
		s-0.8,1.017-1.081,1.661c-0.233,0.516-0.412,1.184-0.535,2.004s-0.22,2.314-0.29,4.482c-0.047,1.582-0.07,3.258-0.07,5.027v1.178
		c-0.634-0.023-1.144-0.035-1.53-0.035C90.095,45.15,89.561,45.162,88.846,45.186z"/>
	<path fill="#111111" d="M101.52,45.186l0.298-4.764l0.368-9.123l0.193-7.646c0.012-1.113,0.018-1.934,0.018-2.461l1.636,0.018
		c0.316,0,0.826-0.006,1.53-0.018c-0.152,1.887-0.336,5.552-0.553,10.995c-0.216,5.443-0.342,9.776-0.377,12.999
		c-0.727-0.023-1.237-0.035-1.53-0.035C102.774,45.15,102.246,45.162,101.52,45.186z M105.141,35.245l3.587-3.828
		c1.254-1.334,2.438-2.681,3.552-4.039c0.808,0.012,1.394,0.018,1.757,0.018c0.457,0,1.083-0.006,1.88-0.018l-7.604,7.884
		c1.419,1.854,4.165,5.161,8.236,9.923c-0.726-0.023-1.311-0.035-1.755-0.035s-1.047,0.012-1.808,0.035l-2.586-3.431
		c-0.246-0.317-0.791-0.985-1.636-2.006l-2.727-3.325L105.141,35.245z"/>
	<path fill="#111111" d="M119.133,45.186c0.2-2.391,0.339-4.33,0.416-5.818s0.183-4.351,0.318-8.587s0.204-6.882,0.204-7.937
		l-0.018-1.652c1.581,0.023,2.8,0.035,3.654,0.035c0.691,0,1.62-0.012,2.785-0.035c1.166-0.023,2.059-0.035,2.68-0.035
		c1.288,0,2.27,0.064,2.943,0.193c0.673,0.129,1.273,0.334,1.801,0.615s0.973,0.636,1.336,1.063
		c0.362,0.428,0.655,0.958,0.878,1.591s0.334,1.33,0.334,2.092c0,0.598-0.073,1.175-0.22,1.731s-0.372,1.078-0.677,1.564
		s-0.656,0.905-1.055,1.257s-0.779,0.624-1.143,0.817s-0.844,0.401-1.441,0.624c0.598,0.152,1.075,0.299,1.433,0.439
		s0.715,0.328,1.072,0.563s0.691,0.524,1.002,0.87s0.563,0.715,0.756,1.107s0.343,0.835,0.448,1.327s0.158,1.008,0.158,1.547
		c0,0.75-0.111,1.465-0.334,2.145s-0.545,1.286-0.967,1.819s-0.92,0.979-1.494,1.336s-1.143,0.627-1.705,0.809
		s-1.304,0.313-2.224,0.396s-2.147,0.123-3.683,0.123l-4.482-0.018L119.133,45.186z M122.507,42.971h4.563
		c1.287,0,2.241-0.07,2.861-0.211s1.229-0.39,1.825-0.747s1.064-0.891,1.404-1.6c0.339-0.709,0.509-1.462,0.509-2.259
		c0-0.656-0.12-1.248-0.36-1.775s-0.591-0.984-1.054-1.371s-1.004-0.668-1.624-0.844c-0.621-0.176-1.528-0.264-2.723-0.264h-5.093
		L122.507,42.971z M122.919,31.703h3.18c1.429,0,2.4-0.032,2.916-0.097s1.074-0.217,1.678-0.457c0.603-0.24,1.101-0.592,1.493-1.055
		c0.392-0.463,0.679-0.967,0.86-1.512s0.272-1.093,0.272-1.644c0-0.586-0.097-1.102-0.29-1.547s-0.483-0.826-0.87-1.143
		s-0.841-0.545-1.362-0.686s-1.315-0.211-2.382-0.211h-5.186L122.919,31.703z"/>
	<path fill="#111111" d="M141.545,30.209c0.105-0.516,0.217-1.277,0.334-2.285c1.406-0.363,2.628-0.612,3.665-0.747
		s2.048-0.202,3.032-0.202c1.055,0,2.042,0.097,2.962,0.29s1.685,0.507,2.294,0.94s1.014,0.932,1.213,1.494s0.299,1.166,0.299,1.811
		c0,0.809-0.062,2.165-0.184,4.069s-0.215,3.665-0.279,5.282s-0.096,3.059-0.096,4.324c-0.634-0.023-1.15-0.035-1.549-0.035
		c-0.376,0-0.909,0.012-1.602,0.035l0.373-4.799l0.268-5.678c-0.411,0.316-0.719,0.539-0.924,0.668s-0.437,0.249-0.695,0.36
		c-0.258,0.111-0.542,0.217-0.853,0.316s-0.915,0.272-1.812,0.519c-0.897,0.246-1.534,0.434-1.909,0.563
		c-0.809,0.258-1.448,0.516-1.917,0.773c-0.47,0.258-0.862,0.539-1.179,0.844c-0.317,0.305-0.54,0.609-0.669,0.914
		c-0.152,0.375-0.229,0.768-0.229,1.178c0,0.633,0.188,1.184,0.563,1.652s0.847,0.794,1.415,0.976s1.251,0.272,2.048,0.272
		c0.492,0,1.008-0.034,1.547-0.103s1.26-0.245,2.162-0.53c-0.164,0.453-0.352,1.15-0.563,2.092
		c-0.855,0.164-1.553,0.267-2.092,0.308s-1.049,0.062-1.529,0.062c-1.605,0-2.859-0.188-3.762-0.563s-1.576-0.946-2.021-1.714
		s-0.668-1.603-0.668-2.505c0-0.527,0.079-1.014,0.237-1.459s0.372-0.85,0.642-1.213s0.653-0.727,1.151-1.09s1.02-0.662,1.564-0.896
		s1.182-0.466,1.908-0.694s1.893-0.536,3.498-0.923c0.516-0.117,0.955-0.237,1.318-0.36c0.364-0.123,0.687-0.243,0.968-0.36
		s0.527-0.255,0.738-0.413s0.404-0.352,0.58-0.58s0.305-0.46,0.387-0.694s0.123-0.469,0.123-0.703c0-0.574-0.188-1.066-0.563-1.477
		s-0.864-0.697-1.469-0.861c-0.604-0.164-1.315-0.246-2.136-0.246c-0.762,0-1.544,0.062-2.347,0.185
		c-0.804,0.123-1.495,0.27-2.075,0.439S142.412,29.869,141.545,30.209z"/>
	<path fill="#111111" d="M159.492,45.186c0.421-6.762,0.632-12.158,0.632-16.189l-0.018-1.617c0.598,0.012,1.09,0.018,1.477,0.018
		c0.446,0,0.944-0.006,1.495-0.018l-0.14,2.918c0.433-0.727,0.817-1.274,1.151-1.644s0.711-0.674,1.133-0.914
		s0.899-0.428,1.433-0.563s1.087-0.202,1.661-0.202c0.492,0,0.979,0.059,1.459,0.176c0.012,0.773,0.053,1.641,0.123,2.602
		c-0.727-0.199-1.377-0.299-1.95-0.299c-0.692,0-1.313,0.114-1.863,0.343c-0.551,0.229-1.046,0.574-1.485,1.037
		s-0.8,1.017-1.081,1.661c-0.233,0.516-0.412,1.184-0.535,2.004s-0.22,2.314-0.29,4.482c-0.047,1.582-0.07,3.258-0.07,5.027v1.178
		c-0.634-0.023-1.144-0.035-1.53-0.035C160.741,45.15,160.207,45.162,159.492,45.186z"/>
</g>
</svg>
